<svg version="1.1" id="Layer_1" xmlns="http://www.w3.org/2000/svg" xmlns:xlink="http://www.w3.org/1999/xlink" x="0px" y="0px" width="389.187px" height="54.32px" viewBox="0 0 389.187 54.32" enable-background="new 0 0 389.187 54.32" xml:space="preserve">
<path fill="#20D225" d="M31.909,31.86h13.012v13.06H31.909V31.86z M9.4,9.4h13.109v35.52H9.4V9.4z M31.909,9.4h13.012v13.06H31.909  V9.4z M54.321,9.4h13.234v35.52H54.321V9.4z M0,54.32h76.954V0H0V54.32z"/>
<polygon fill="#FFFFFF" points="99.7,9.446 109.115,9.446 109.115,22.424 122.2,22.424 122.2,9.446 131.615,9.446 131.615,44.924   122.2,44.924 122.2,31.04 109.115,31.04 109.115,44.924 99.7,44.924 "/>
<g>
	<defs>
		<rect id="SVGID_1_" y="0" width="389.187" height="54.32"/>
	</defs>
	<clipPath id="SVGID_2_">
		<use xlink:href="#SVGID_1_" overflow="visible"/>
	</clipPath>
	<path clip-path="url(#SVGID_2_)" fill="#FFFFFF" d="M155.497,45.776c-2.66,0-5.116-0.471-7.367-1.41   c-2.252-0.939-4.202-2.233-5.851-3.883c-1.649-1.65-2.935-3.617-3.857-5.904c-0.922-2.288-1.382-4.779-1.382-7.473   s0.46-5.188,1.382-7.475c0.922-2.287,2.208-4.254,3.857-5.904c1.649-1.648,3.599-2.932,5.851-3.856   c2.251-0.921,4.707-1.383,7.367-1.383c2.659,0,5.124,0.462,7.394,1.383c2.269,0.924,4.219,2.208,5.851,3.856   c1.63,1.65,2.907,3.617,3.83,5.904c0.921,2.287,1.382,4.781,1.382,7.475s-0.461,5.185-1.382,7.473   c-0.923,2.287-2.2,4.254-3.83,5.904c-1.632,1.65-3.582,2.944-5.851,3.883C160.621,45.305,158.156,45.776,155.497,45.776    M155.497,36.945c1.383,0,2.615-0.256,3.697-0.77c1.081-0.514,1.994-1.215,2.739-2.101c0.745-0.887,1.312-1.933,1.702-3.139   c0.39-1.205,0.585-2.481,0.585-3.829c0-1.348-0.195-2.625-0.585-3.83c-0.39-1.205-0.957-2.251-1.702-3.139   c-0.745-0.885-1.658-1.586-2.739-2.1c-1.082-0.514-2.314-0.772-3.697-0.772c-1.383,0-2.616,0.258-3.697,0.772   c-1.082,0.514-1.994,1.215-2.739,2.1c-0.745,0.888-1.313,1.934-1.702,3.139c-0.391,1.205-0.585,2.482-0.585,3.83   c0,1.348,0.194,2.624,0.585,3.829c0.389,1.206,0.957,2.252,1.702,3.139c0.745,0.886,1.657,1.587,2.739,2.101   C152.881,36.689,154.114,36.945,155.497,36.945"/>
	<path clip-path="url(#SVGID_2_)" fill="#FFFFFF" d="M179.484,9.446h14.468c1.915,0,3.644,0.257,5.186,0.771   c1.543,0.514,2.864,1.258,3.963,2.233c1.099,0.977,1.95,2.2,2.553,3.671c0.603,1.471,0.904,3.165,0.904,5.081   c0,1.808-0.31,3.448-0.93,4.919c-0.621,1.471-1.472,2.732-2.554,3.776c-1.082,1.046-2.376,1.845-3.883,2.394   c-1.507,0.55-3.165,0.824-4.973,0.824h-5.532v11.809h-9.202V9.446z M193.154,25.722c1.277,0,2.288-0.407,3.032-1.223   c0.745-0.816,1.117-1.862,1.117-3.139c0-1.346-0.355-2.428-1.064-3.244c-0.71-0.816-1.755-1.223-3.138-1.223h-4.415v8.829H193.154z   "/>
	<polygon clip-path="url(#SVGID_2_)" fill="#FFFFFF" points="221.129,17.689 210.225,17.689 210.225,9.446 241.448,9.446    241.448,17.689 230.651,17.689 230.651,44.924 221.129,44.924  "/>
	<path clip-path="url(#SVGID_2_)" fill="#FFFFFF" d="M248.443,9.446h14.681c1.915,0,3.644,0.249,5.186,0.745   c1.543,0.496,2.864,1.233,3.964,2.208c1.098,0.974,1.949,2.189,2.553,3.643c0.602,1.453,0.904,3.138,0.904,5.052   c0,2.341-0.515,4.372-1.543,6.091c-1.028,1.72-2.393,3.093-4.095,4.122l7.606,13.617h-10.106l-6.011-12.075h-3.936v12.075h-9.203   V9.446z M262.22,25.456c1.241,0,2.252-0.381,3.032-1.144c0.78-0.762,1.17-1.78,1.17-3.057c0-1.348-0.372-2.412-1.117-3.192   c-0.744-0.781-1.791-1.17-3.138-1.17h-4.521v8.563H262.22z"/>
	<path clip-path="url(#SVGID_2_)" fill="#FFFFFF" d="M294.373,9.446h10.799l12.553,35.478h-10.159l-2.288-7.34h-11.862l-2.34,7.34   h-9.734L294.373,9.446z M303.363,30.723l-3.936-13.034l-4.096,13.034H303.363z"/>
	<polygon clip-path="url(#SVGID_2_)" fill="#FFFFFF" points="322.41,9.446 330.975,9.446 344.591,29.232 344.591,9.446 353.9,9.446    353.9,44.924 345.867,44.924 331.719,24.552 331.719,44.924 322.41,44.924  "/>
	<path clip-path="url(#SVGID_2_)" fill="#FFFFFF" d="M365.464,33.701c0.992,0.993,2.287,1.898,3.882,2.712   c1.597,0.818,3.352,1.225,5.266,1.225c0.461,0,0.939-0.046,1.437-0.133c0.496-0.089,0.939-0.24,1.33-0.453   c0.389-0.212,0.709-0.496,0.957-0.851c0.248-0.354,0.372-0.814,0.372-1.382c0-0.923-0.471-1.684-1.41-2.287   c-0.94-0.604-2.313-1.205-4.122-1.809l-1.967-0.639c-1.1-0.354-2.208-0.816-3.325-1.382c-1.118-0.568-2.119-1.251-3.006-2.049   c-0.886-0.798-1.605-1.737-2.154-2.819c-0.55-1.082-0.825-2.349-0.825-3.804c0-1.63,0.301-3.147,0.905-4.546   c0.602-1.402,1.48-2.625,2.633-3.671c1.152-1.046,2.58-1.862,4.282-2.448c1.702-0.584,3.67-0.877,5.904-0.877   c1.737,0,3.315,0.16,4.734,0.478c1.418,0.32,2.66,0.711,3.723,1.171c1.064,0.461,1.969,0.957,2.713,1.489   c0.745,0.532,1.312,1.011,1.703,1.436l-4.788,6.065c-1.242-0.921-2.535-1.676-3.882-2.261c-1.349-0.586-2.732-0.878-4.15-0.878   c-0.461,0-0.922,0.054-1.382,0.159c-0.462,0.107-0.878,0.266-1.251,0.48c-0.372,0.213-0.674,0.487-0.904,0.824   c-0.231,0.338-0.346,0.755-0.346,1.249c0,0.532,0.133,0.995,0.399,1.384c0.266,0.391,0.63,0.726,1.091,1.01   c0.46,0.284,1.019,0.542,1.676,0.773c0.655,0.23,1.356,0.47,2.1,0.716l1.703,0.532c1.205,0.391,2.428,0.844,3.669,1.356   c1.241,0.517,2.359,1.207,3.352,2.075c0.992,0.87,1.808,1.952,2.447,3.246c0.638,1.294,0.958,2.881,0.958,4.761   c0,1.63-0.383,3.137-1.145,4.52c-0.762,1.384-1.791,2.571-3.084,3.564c-1.296,0.993-2.819,1.765-4.575,2.315   c-1.755,0.548-3.627,0.824-5.612,0.824c-3.547,0-6.516-0.471-8.91-1.41c-2.393-0.939-4.423-2.208-6.09-3.804L365.464,33.701z"/>
</g>
</svg>